<!--?xml version="1.0" encoding="utf-8"?-->
<!-- Generator: Adobe Illustrator 22.1.0, SVG Export Plug-In . SVG Version: 6.00 Build 0)  -->
<svg version="1.1" id="_x37_" xmlns="http://www.w3.org/2000/svg" xmlns:xlink="http://www.w3.org/1999/xlink" x="0px" y="0px" viewBox="0 0 692.8 800" style="width: 200px;" xml:space="preserve">
<style type="text/css">
	.st0{fill:#1F001A;}
	.st1{fill:#C6A587;}
	.st2{fill:#845F5D;}
</style>
<g>
	<g>
		<path class="st0" d="M678.9,561.9c-0.5-0.8-2.8,3-7.5,5.7c-4.6,2.8-11.5,4.4-20.7-0.1c0,0-0.4-6.1-5.4-8.7
			c-5-2.6-10.5-1.2-10.5-1.2l-18-9.9c0,0,8.4,1.5,19-1.9c5.3-1.7,11.1-4.6,16.4-9.6c5.3-5,10.2-12,13.4-21.5c3.8-11.5,2.4-22.4-2-31
			c-4.5-8.6-12-15-20.5-18.7c-8.6-3.7-18.1-4.7-26.9-3.1c-8.8,1.6-16.9,5.8-23.1,13c-4.7,5.1-7.1,9.7-7.9,14.1
			c-0.8,4.4-0.1,8.5,1.4,12.2c3,7.4,9.1,13.1,12.1,14.5c3,1.4,6.5,1.1,9-0.2c2.5-1.3,4.1-3.6,3.4-6.1c-1.5-5-5.7-9.6-12.2-8.1
			c-2.1-9.5-1.6-15.4,1.5-19.5c3.1-4.1,8.6-6.4,15.8-7.9c-1.3,4.7-2.6,8.8-1.7,11.1c0.9,2.3,3.9,2.9,11.1-0.2
			c7.2-3.1,15-2.3,20.7,1.6c5.7,3.9,9.4,11,8.2,19.6c-1.2,8.6-7.4,18.7-16.4,24.5c-4.5,2.9-9.7,4.8-15.2,5
			c-5.5,0.3-11.3-1.1-17.2-4.4c-9.7-5.4-20.1-13.5-27.3-22.6c-3.6-4.6-6.4-9.4-8-14.5c-1.6-5.1-1.9-10.3-0.6-15.9
			c1.4-5.6,3.6-9.8,6.2-13.1c2.6-3.3,5.6-5.8,8.4-7.7c5.6-3.8,10.4-5.3,9-6.9c-3.2-3.8-8-4.8-12-5.1c-4-0.2-7.2,0.4-7.2,0.4
			c0,0,0.9-4.5,4.6-10.1c3.7-5.6,9.9-12.5,21.3-17.9c9.8-4.7,19.5-5.5,27.8-3.4c3.3,0.8,5.2,5,6.6,9.5c1.4,4.5,2.4,9.3,4.3,11.4
			c2.5,2.7,9,3.8,10.9-3.5c4.2,7.9,5.4,12.8,5.8,16.1c0.5,3.4,0.1,5.2,0.8,7.6c0.7,2.3,3.3,3.4,6.1,1.8c2.8-1.6,5.8-6,7-14.4
			c1.1-8.4-2.4-18.2-9.5-26.1c-7-7.9-17.5-13.8-29.5-15.7c-3.8-0.6-7.4-0.9-11-0.9c3.6,0,7.2-0.3,11-0.9c12.1-2,22.5-7.8,29.5-15.7
			c7-7.8,10.6-17.7,9.5-26.1c-1.1-8.4-4.2-12.8-7-14.4c-2.8-1.6-5.4-0.5-6.1,1.8c-0.7,2.3-0.4,4.2-0.8,7.6
			c-0.5,3.3-1.7,8.2-5.8,16.1c-1.9-7.3-8.4-6.2-10.9-3.5c-1.9,2.1-2.9,6.9-4.3,11.4c-1.4,4.5-3.3,8.7-6.6,9.5
			c-8.3,2.1-18,1.3-27.8-3.4c-11.4-5.4-17.7-12.3-21.3-17.9c-3.6-5.6-4.6-10.1-4.6-10.1c0,0,3.2,0.6,7.2,0.4c4-0.2,8.9-1.3,12-5.1
			c1.4-1.6-3.4-3.1-9-6.9c-2.8-1.9-5.8-4.3-8.4-7.7c-2.6-3.3-4.8-7.5-6.2-13.1c-1.4-5.6-1-10.8,0.6-15.9c1.6-5.1,4.4-9.9,8-14.5
			c7.2-9.2,17.6-17.2,27.3-22.6c5.9-3.3,11.7-4.6,17.2-4.4c5.5,0.3,10.7,2.1,15.2,5c9.1,5.8,15.2,15.9,16.4,24.5
			c1.2,8.6-2.5,15.7-8.2,19.6c-5.8,3.9-13.5,4.7-20.7,1.6c-7.3-3.1-10.3-2.5-11.1-0.2c-0.9,2.3,0.4,6.5,1.7,11.1
			c-7.3-1.5-12.8-3.8-15.8-7.9c-3.1-4.1-3.6-10.1-1.5-19.5c6.5,1.5,10.6-3.1,12.2-8.1c0.8-2.5-0.8-4.8-3.4-6.1c-2.5-1.3-6-1.6-9-0.2
			c-3,1.4-9.1,7.1-12.1,14.5c-1.5,3.7-2.2,7.8-1.4,12.2c0.8,4.4,3.2,9,7.9,14.1c6.2,7.2,14.3,11.4,23.1,13
			c8.8,1.6,18.4,0.6,26.9-3.1c8.5-3.7,16.1-10,20.5-18.7c4.5-8.6,5.8-19.5,2-31c-3.1-9.5-8-16.5-13.4-21.5c-5.4-5-11.2-7.9-16.4-9.6
			c-10.6-3.4-19-1.9-19-1.9l18-9.9c0,0,5.6,1.4,10.5-1.2c5-2.6,5.4-8.7,5.4-8.7c9.2-4.5,16.1-3,20.6-0.3c4.6,2.7,6.9,6.3,7.4,5.5
			c0.5-0.8,1.1-5.5,2.6-12.1c1.5-6.6,3.8-15.2,8-23.8c-9.5-0.6-18.2-2.9-24.7-5c-6.5-2.1-11-4-11.9-4c-0.9,0.1,1.2,3.9,1.2,9.3
			c0.1,5.4-1.9,12.2-10.4,17.9c0,0-5.5-2.6-10.2,0.4c-4.7,3-6.3,8.5-6.3,8.5l-17.6,10.7c0,0,5.5-6.6,7.8-17.4
			c1.2-5.4,1.5-11.9-0.1-19c-1.6-7.1-5.3-14.8-11.9-22.3c-8.1-9-18.1-13.3-27.8-13.7c-9.7-0.5-19,2.8-26.4,8.4
			c-7.5,5.6-13.2,13.3-16.2,21.7c-3,8.5-3.5,17.6-0.3,26.5c2.1,6.6,4.9,11,8.3,13.9c3.4,2.9,7.3,4.3,11.3,4.9
			c7.9,1.1,15.9-1.3,18.6-3.2c2.7-1.9,4.2-5.1,4.3-7.9c0.1-2.9-1.1-5.4-3.6-6c-5.1-1.2-11.1,0.1-13.1,6.5
			c-9.3-2.9-14.2-6.4-16.2-11.1c-2-4.7-1.2-10.6,1.1-17.7c3.4,3.4,6.4,6.6,8.8,7.1c2.4,0.4,4.4-1.9,5.4-9.7
			c1-7.8,5.5-14.1,11.8-17.2c6.2-3,14.2-2.7,21.1,2.6c6.8,5.3,12.5,15.7,13,26.4c0.3,5.4-0.7,10.8-3.2,15.7
			c-2.5,4.9-6.6,9.3-12.4,12.7c-9.5,5.8-21.7,10.7-33.2,12.4c-5.8,0.8-11.4,0.9-16.6-0.3c-5.2-1.2-9.9-3.5-14.1-7.5
			c-4.2-4-6.7-8-8.3-12c-1.6-3.9-2.2-7.7-2.5-11.1c-0.5-6.7,0.6-11.6-1.5-11.3c-4.8,0.9-8.2,4.5-10.4,7.9c-2.2,3.4-3.3,6.4-3.3,6.4
			c0,0-3.4-3.1-6.5-9c-3-6-5.8-14.9-4.8-27.5c0.9-10.8,5.1-19.6,11.1-25.8c2.4-2.5,6.9-2,11.5-0.9c4.6,1,9.2,2.6,12,2
			c3.6-0.8,7.8-5.9,2.4-11.2c8.9,0.4,13.8,1.8,16.9,3c3.1,1.3,4.6,2.5,7,3.1c2.4,0.6,4.6-1.1,4.6-4.4c0-3.2-2.2-8-9-13.2
			c-6.7-5.2-17-7-27.3-4.9c-10.4,2.1-20.7,8.2-28.4,17.7c-2.4,3-4.5,6-6.3,9.1c1.8-3.1,3.3-6.4,4.7-10c4.3-11.5,4.5-23.4,1.2-33.5
			c-3.3-10-10-18-17.9-21.2c-7.9-3.2-13.2-2.8-16-1.1c-2.8,1.6-3.2,4.4-1.5,6.2c1.7,1.8,3.5,2.4,6.2,4.5c2.7,2.1,6.3,5.6,11.1,13.1
			c-7.2-2-9.6,4.2-8.5,7.7c0.8,2.7,4.5,5.9,7.7,9.4c3.2,3.5,5.9,7.2,4.9,10.4c-2.4,8.3-7.9,16.3-16.8,22.4
			c-10.4,7.2-19.5,9.2-26.2,9.5c-6.7,0.3-11-1.1-11-1.1c0,0,2.1-2.5,3.9-6.1c1.8-3.6,3.3-8.3,1.6-13c-0.7-2-4.4,1.4-10.5,4.3
			c-3,1.5-6.6,2.8-10.8,3.4c-4.2,0.6-8.9,0.4-14.5-1.2c-5.5-1.6-9.9-4.5-13.5-8.4c-3.6-3.9-6.4-8.8-8.6-14.2
			c-4.3-10.8-6.1-23.8-5.9-35c0.1-6.7,1.9-12.4,4.8-17.1c3-4.6,7.2-8.2,11.9-10.6c9.5-4.9,21.4-5.2,29.4-2c8,3.2,12.4,10,12.8,16.9
			c0.5,6.9-2.7,14.1-8.9,18.8c-6.3,4.8-7.3,7.7-5.7,9.6c1.6,1.9,5.8,2.9,10.5,4.1c-5,5.5-9.7,9.2-14.7,9.8
			c-5.1,0.6-10.6-1.9-17.7-8.5c4.5-4.9,2.6-10.8-0.9-14.6c-1.8-1.9-4.6-1.7-7-0.1c-2.4,1.5-4.4,4.4-4.7,7.7
			c-0.3,3.3,1.6,11.4,6.5,17.7c2.5,3.1,5.7,5.8,9.9,7.3c4.2,1.5,9.4,1.8,16.2,0.2c9.3-1.8,17-6.7,22.8-13.6
			c5.8-6.8,9.6-15.6,10.7-24.9c1.1-9.2-0.7-18.9-6-27.1c-5.2-8.1-14-14.7-25.8-17.2c-9.8-2-18.3-1.3-25.3,0.9
			c-7,2.1-12.4,5.7-16.5,9.4c-8.2,7.5-11.1,15.5-11.1,15.5l0.5-20.6c0,0,4-4.1,4.2-9.7c0.2-5.6-4.8-9-4.8-9
			c0.7-10.3,5.5-15.4,10.1-18c4.6-2.6,8.9-2.8,8.5-3.6c-0.4-0.8-4.2-3.7-9.2-8.3c-5-4.6-11.3-10.9-16.5-18.9
			c-5.2,7.9-11.6,14.2-16.7,18.9c-5.1,4.6-9,7.5-9.4,8.3c-0.4,0.8,4,1,8.7,3.6c4.7,2.6,9.6,7.7,10.2,18c0,0-5,3.4-4.8,9
			c0.2,5.6,4.2,9.7,4.2,9.7l0.5,20.6c0,0-2.9-8-11.1-15.5c-4.1-3.7-9.5-7.3-16.5-9.4c-7-2.1-15.5-2.9-25.3-0.9
			c-11.8,2.5-20.6,9-25.8,17.2c-5.3,8.2-7,17.9-6,27.1c1.1,9.3,4.9,18,10.7,24.9c5.8,6.9,13.5,11.8,22.8,13.6
			c6.8,1.5,12,1.3,16.2-0.2c4.2-1.5,7.4-4.2,9.9-7.3c4.9-6.3,6.8-14.4,6.5-17.7c-0.3-3.3-2.3-6.1-4.7-7.7c-2.4-1.5-5.2-1.8-7,0.1
			c-3.5,3.8-5.5,9.7-0.9,14.6c-7.1,6.6-12.6,9.1-17.7,8.5c-5.1-0.6-9.8-4.3-14.7-9.8c4.7-1.2,8.9-2.2,10.5-4.1
			c1.6-1.9,0.6-4.8-5.7-9.6c-6.3-4.7-9.5-11.8-8.9-18.8c0.5-6.9,4.8-13.7,12.8-16.9c8-3.3,19.9-3,29.4,2c4.8,2.5,9,6,11.9,10.6
			c3,4.6,4.7,10.3,4.8,17.1c0.2,11.1-1.6,24.1-5.9,35c-2.2,5.4-5,10.3-8.6,14.2c-3.6,3.9-8,6.8-13.5,8.4c-5.5,1.6-10.3,1.8-14.5,1.2
			c-4.2-0.6-7.8-2-10.8-3.4c-6.1-2.9-9.8-6.3-10.5-4.3c-1.7,4.6-0.2,9.4,1.6,13c1.8,3.6,3.9,6.1,3.9,6.1c0,0-4.3,1.4-11,1.1
			c-6.7-0.4-15.8-2.4-26.2-9.5c-9-6.2-14.5-14.2-16.8-22.4c-0.9-3.3,1.7-7,4.9-10.4c3.2-3.5,6.9-6.7,7.7-9.4
			c1.1-3.5-1.2-9.7-8.5-7.7c4.8-7.5,8.4-11,11.1-13.1c2.7-2.1,4.5-2.7,6.2-4.5c1.7-1.8,1.3-4.6-1.5-6.2c-2.8-1.6-8.1-2.1-16,1.2
			c-7.9,3.2-14.6,11.2-17.9,21.2c-3.3,10-3.2,22,1.2,33.5c1.3,3.6,2.9,6.9,4.7,10c-1.8-3.1-3.9-6.1-6.3-9.1
			c-7.8-9.5-18.1-15.6-28.4-17.7c-10.3-2.2-20.6-0.3-27.3,4.9c-6.7,5.2-9,10-9,13.2c0,3.2,2.2,5,4.6,4.4c2.4-0.6,3.8-1.8,7-3.1
			c3.1-1.3,8-2.7,16.9-3c-5.3,5.3-1.1,10.4,2.4,11.2c2.7,0.6,7.4-1,12-2c4.6-1,9.1-1.5,11.5,0.9c6,6.2,10.2,14.9,11.1,25.8
			c1,12.6-1.8,21.5-4.8,27.5c-3,6-6.5,9-6.5,9c0,0-1.1-3.1-3.3-6.4c-2.2-3.3-5.6-7-10.4-7.9c-2.1-0.4-1,4.6-1.5,11.3
			c-0.3,3.4-0.9,7.2-2.5,11.1c-1.6,3.9-4.1,8-8.3,12c-4.2,4-8.9,6.3-14.1,7.5c-5.2,1.2-10.8,1.1-16.6,0.3
			c-11.5-1.7-23.7-6.7-33.2-12.4c-5.8-3.5-9.8-7.8-12.4-12.7c-2.5-4.9-3.5-10.3-3.2-15.7c0.5-10.7,6.2-21.2,13-26.4
			c6.8-5.3,14.8-5.7,21.1-2.6c6.3,3,10.8,9.3,11.8,17.2c1,7.8,3,10.2,5.4,9.7c2.4-0.4,5.4-3.6,8.8-7.1c2.3,7.1,3.1,13,1.1,17.7
			c-2,4.7-6.9,8.2-16.2,11.1c-2-6.4-8-7.6-13.1-6.5c-2.5,0.6-3.7,3.1-3.6,6c0.1,2.9,1.6,6,4.3,7.9c2.7,1.9,10.7,4.3,18.6,3.2
			c4-0.5,7.9-2,11.3-4.9c3.4-2.9,6.2-7.3,8.3-13.9c3.1-9,2.7-18.1-0.3-26.5c-3-8.4-8.7-16.2-16.2-21.7c-7.5-5.6-16.7-8.9-26.4-8.4
			c-9.7,0.4-19.7,4.7-27.8,13.7c-6.7,7.5-10.3,15.2-11.9,22.3c-1.6,7.1-1.3,13.6-0.1,19c2.4,10.8,7.9,17.4,7.8,17.4L65.8,229
			c0,0-1.5-5.5-6.3-8.5c-4.7-3-10.2-0.4-10.2-0.4c-8.6-5.7-10.6-12.4-10.5-17.7c0-5.3,2-9.1,1.1-9.2c-0.9-0.1-5.3,1.8-11.8,3.8
			c-6.5,2-15.1,4.3-24.6,4.9c4.2,8.5,6.5,17.2,7.9,23.9c1.4,6.7,2,11.5,2.5,12.3c0.5,0.8,2.8-3,7.5-5.7c4.6-2.8,11.5-4.4,20.7,0.1
			c0,0,0.4,6.1,5.4,8.7c5,2.6,10.5,1.2,10.5,1.2l18,9.9c0,0-8.4-1.5-19,1.9c-5.3,1.7-11.1,4.6-16.4,9.6c-5.3,5-10.2,12-13.4,21.5
			c-3.8,11.5-2.4,22.4,2,31c4.5,8.6,12,15,20.5,18.7c8.6,3.7,18.1,4.7,26.9,3.1c8.8-1.6,16.9-5.8,23.1-13c4.7-5.1,7.1-9.7,7.9-14.1
			c0.8-4.4,0.1-8.5-1.4-12.2c-3-7.4-9.1-13.1-12.1-14.5c-3-1.4-6.5-1.1-9,0.2c-2.5,1.3-4.1,3.6-3.4,6.1c1.5,5,5.6,9.6,12.2,8.1
			c2.1,9.5,1.6,15.4-1.5,19.5c-3.1,4.1-8.6,6.4-15.8,7.9c1.3-4.7,2.6-8.8,1.7-11.1c-0.9-2.3-3.9-2.9-11.1,0.2
			c-7.2,3.1-15,2.3-20.7-1.6c-5.7-3.9-9.4-11-8.2-19.6c1.2-8.6,7.3-18.7,16.4-24.5c4.5-2.9,9.7-4.8,15.2-5
			c5.5-0.3,11.3,1.1,17.2,4.4c9.7,5.4,20.1,13.5,27.3,22.6c3.6,4.6,6.4,9.4,8,14.5c1.6,5.1,1.9,10.3,0.6,15.9
			c-1.4,5.6-3.6,9.8-6.2,13.1c-2.6,3.3-5.6,5.8-8.4,7.7c-5.6,3.8-10.3,5.3-9,6.9c3.2,3.8,8,4.8,12,5.1c4,0.2,7.2-0.4,7.2-0.4
			c0,0-0.9,4.5-4.6,10.1c-3.7,5.6-9.9,12.5-21.3,17.9c-9.8,4.7-19.5,5.5-27.8,3.4c-3.3-0.8-5.2-5-6.6-9.5c-1.4-4.5-2.4-9.3-4.3-11.4
			c-2.5-2.7-9-3.8-10.9,3.5c-4.2-7.9-5.4-12.8-5.8-16.1c-0.5-3.4-0.1-5.2-0.8-7.6c-0.7-2.3-3.3-3.4-6.1-1.8c-2.8,1.6-5.8,6-7,14.4
			c-1.1,8.4,2.4,18.2,9.5,26.1c7,7.9,17.5,13.8,29.5,15.7c3.8,0.6,7.4,0.9,11,0.9c-3.6,0-7.2,0.3-11,0.9c-12.1,2-22.5,7.8-29.5,15.7
			c-7,7.8-10.6,17.7-9.5,26.1c1.1,8.4,4.2,12.8,7,14.4c2.8,1.6,5.4,0.5,6.1-1.8c0.7-2.3,0.4-4.2,0.8-7.6c0.5-3.3,1.7-8.2,5.8-16.1
			c1.9,7.3,8.4,6.2,10.9,3.5c1.9-2.1,2.9-6.9,4.3-11.4c1.4-4.5,3.3-8.7,6.6-9.5c8.3-2.1,18-1.3,27.8,3.4
			c11.4,5.4,17.7,12.3,21.3,17.9c3.6,5.6,4.6,10.1,4.6,10.1c0,0-3.2-0.6-7.2-0.4c-4,0.2-8.9,1.3-12,5.1c-1.4,1.6,3.4,3.1,9,6.9
			c2.8,1.9,5.8,4.3,8.4,7.7c2.6,3.3,4.8,7.5,6.2,13.1c1.4,5.6,1,10.8-0.6,15.9c-1.6,5.1-4.4,9.9-8,14.5
			c-7.2,9.2-17.6,17.2-27.3,22.6c-5.9,3.3-11.7,4.6-17.2,4.4c-5.5-0.3-10.7-2.1-15.2-5c-9.1-5.8-15.2-15.9-16.4-24.5
			c-1.2-8.6,2.5-15.7,8.2-19.6c5.8-3.9,13.5-4.7,20.7-1.6c7.3,3.1,10.3,2.5,11.1,0.2c0.9-2.3-0.4-6.5-1.7-11.1
			c7.3,1.5,12.8,3.8,15.8,7.9c3.1,4.1,3.6,10.1,1.5,19.5c-6.5-1.5-10.6,3.1-12.2,8.1c-0.8,2.5,0.8,4.8,3.4,6.1c2.5,1.3,6,1.6,9,0.2
			c3-1.4,9.1-7.1,12.1-14.5c1.5-3.7,2.2-7.8,1.4-12.2c-0.8-4.4-3.2-9-7.9-14.1c-6.2-7.2-14.3-11.4-23.1-13
			c-8.8-1.6-18.4-0.6-26.9,3.1c-8.5,3.7-16.1,10.1-20.5,18.7c-4.5,8.6-5.8,19.5-2,31c3.1,9.5,8,16.5,13.4,21.5
			c5.4,5,11.2,7.9,16.4,9.6c10.6,3.4,19,1.9,19,1.9l-18,9.9c0,0-5.6-1.4-10.5,1.2c-5,2.6-5.4,8.7-5.4,8.7c-9.2,4.5-16.1,3-20.6,0.3
			c-4.6-2.7-6.9-6.3-7.4-5.5c-0.5,0.8-1.1,5.5-2.6,12.1c-1.5,6.6-3.8,15.2-8,23.8c9.5,0.6,18.2,2.9,24.7,5c6.5,2.1,11,4,11.9,4
			c0.9-0.1-1.2-3.9-1.2-9.3c-0.1-5.4,1.9-12.2,10.4-17.9c0,0,5.5,2.6,10.2-0.4c4.7-3,6.3-8.5,6.3-8.5l17.6-10.7
			c0,0-5.5,6.6-7.8,17.4c-1.2,5.4-1.5,11.9,0.1,19c1.6,7.1,5.3,14.8,11.9,22.3c8.1,9,18.1,13.3,27.8,13.7c9.7,0.5,19-2.8,26.4-8.4
			c7.5-5.6,13.2-13.3,16.2-21.7c3-8.5,3.5-17.6,0.3-26.5c-2.1-6.6-4.9-11-8.3-13.9c-3.4-2.9-7.3-4.3-11.3-4.9
			c-7.9-1.1-15.9,1.3-18.6,3.2c-2.7,1.9-4.2,5.1-4.3,7.9c-0.1,2.9,1.1,5.4,3.6,6c5.1,1.2,11.1-0.1,13.1-6.5
			c9.3,2.9,14.2,6.4,16.2,11.1c2,4.7,1.2,10.6-1.1,17.7c-3.4-3.4-6.4-6.6-8.8-7.1c-2.4-0.4-4.4,1.9-5.4,9.7
			c-1,7.8-5.5,14.1-11.8,17.2c-6.2,3-14.2,2.7-21.1-2.6c-6.8-5.3-12.5-15.7-13-26.4c-0.3-5.4,0.7-10.8,3.2-15.7
			c2.5-4.9,6.6-9.3,12.4-12.7c9.5-5.7,21.7-10.7,33.2-12.4c5.8-0.8,11.4-0.9,16.6,0.3c5.2,1.2,9.9,3.5,14.1,7.5c4.2,4,6.7,8,8.3,12
			c1.6,3.9,2.2,7.7,2.5,11.1c0.5,6.7-0.6,11.6,1.5,11.3c4.8-0.9,8.2-4.5,10.4-7.9c2.2-3.4,3.3-6.4,3.3-6.4c0,0,3.4,3.1,6.5,9
			c3,6,5.8,14.9,4.8,27.5c-0.9,10.8-5.1,19.6-11.1,25.8c-2.4,2.5-6.9,2-11.5,0.9c-4.6-1-9.2-2.6-12-2c-3.6,0.8-7.8,5.9-2.4,11.2
			c-8.9-0.4-13.8-1.8-16.9-3c-3.1-1.3-4.6-2.5-7-3.1c-2.4-0.6-4.6,1.1-4.6,4.4c0,3.2,2.2,8.1,9,13.2c6.7,5.2,17,7,27.3,4.9
			c10.4-2.1,20.7-8.2,28.4-17.7c2.4-3,4.5-6,6.3-9.1c-1.8,3.1-3.3,6.4-4.7,10c-4.3,11.5-4.5,23.4-1.2,33.5c3.3,10,10,18,17.9,21.2
			c7.9,3.2,13.2,2.8,16,1.2c2.8-1.6,3.2-4.4,1.5-6.2c-1.7-1.8-3.5-2.4-6.2-4.5c-2.7-2.1-6.3-5.6-11.1-13.1c7.2,2,9.6-4.2,8.5-7.7
			c-0.8-2.7-4.5-5.9-7.7-9.4c-3.2-3.5-5.9-7.2-4.9-10.4c2.4-8.3,7.9-16.3,16.8-22.4c10.4-7.2,19.5-9.2,26.2-9.5
			c6.7-0.3,11,1.1,11,1.1c0,0-2.1,2.5-3.9,6.1c-1.8,3.6-3.3,8.3-1.6,13c0.7,2,4.4-1.4,10.5-4.3c3-1.5,6.6-2.8,10.8-3.4
			c4.2-0.6,8.9-0.4,14.5,1.2c5.5,1.6,9.9,4.5,13.5,8.4c3.6,3.9,6.4,8.8,8.6,14.2c4.3,10.8,6.1,23.8,5.9,35
			c-0.1,6.7-1.9,12.4-4.8,17.1c-3,4.6-7.2,8.2-11.9,10.6c-9.5,4.9-21.4,5.2-29.4,2c-8-3.2-12.4-10-12.8-16.9
			c-0.5-6.9,2.7-14.1,8.9-18.8c6.3-4.8,7.3-7.7,5.7-9.6c-1.6-1.9-5.8-2.9-10.5-4.1c5-5.5,9.7-9.2,14.7-9.8
			c5.1-0.6,10.6,1.9,17.7,8.5c-4.5,4.9-2.6,10.8,0.9,14.6c1.8,1.9,4.6,1.7,7,0.1c2.4-1.5,4.4-4.4,4.7-7.7c0.3-3.3-1.6-11.4-6.5-17.7
			c-2.5-3.1-5.7-5.8-9.9-7.3c-4.2-1.5-9.4-1.8-16.2-0.2c-9.3,1.8-17,6.7-22.8,13.6c-5.8,6.8-9.6,15.6-10.7,24.9
			c-1.1,9.2,0.7,18.9,6,27.1c5.2,8.1,14,14.7,25.8,17.2c9.8,2,18.3,1.3,25.3-0.9c7-2.2,12.4-5.7,16.5-9.4
			c8.2-7.5,11.1-15.5,11.1-15.5l-0.5,20.6c0,0-4,4.1-4.2,9.7c-0.2,5.6,4.8,9,4.8,9c-0.7,10.3-5.5,15.4-10.1,18
			c-4.6,2.6-8.9,2.8-8.5,3.6c0.4,0.8,4.2,3.7,9.2,8.3c5,4.6,11.3,10.9,16.5,18.9c5.2-7.9,11.6-14.3,16.7-18.9c5.1-4.6,9-7.5,9.4-8.3
			c0.4-0.8-4-1-8.7-3.6c-4.7-2.6-9.6-7.7-10.2-18c0,0,5-3.4,4.8-9c-0.2-5.6-4.2-9.7-4.2-9.7l-0.5-20.6c0,0,2.9,8,11.1,15.5
			c4.1,3.7,9.5,7.3,16.5,9.4c7,2.2,15.5,2.9,25.3,0.9c11.8-2.5,20.6-9,25.8-17.2c5.3-8.2,7-17.9,6-27.1c-1.1-9.3-4.9-18-10.7-24.9
			c-5.8-6.9-13.5-11.8-22.8-13.6c-6.8-1.5-12-1.3-16.2,0.2c-4.2,1.5-7.4,4.2-9.9,7.3c-4.9,6.3-6.8,14.4-6.5,17.7
			c0.3,3.3,2.3,6.1,4.7,7.7c2.4,1.5,5.2,1.8,7-0.1c3.5-3.8,5.5-9.7,0.9-14.6c7.1-6.6,12.6-9.1,17.7-8.5c5.1,0.6,9.8,4.3,14.7,9.8
			c-4.7,1.2-8.9,2.2-10.5,4.1c-1.6,1.9-0.6,4.8,5.7,9.6c6.3,4.7,9.5,11.8,8.9,18.8c-0.5,6.9-4.8,13.7-12.8,16.9
			c-8,3.3-19.9,3-29.4-2c-4.8-2.4-9-6-11.9-10.6c-3-4.6-4.7-10.3-4.8-17.1c-0.2-11.1,1.6-24.1,5.9-35c2.2-5.4,5-10.3,8.6-14.2
			c3.6-3.9,8-6.8,13.5-8.4c5.5-1.6,10.3-1.8,14.5-1.2c4.2,0.6,7.8,2,10.8,3.4c6.1,2.9,9.8,6.3,10.5,4.3c1.7-4.6,0.2-9.4-1.6-13
			c-1.8-3.6-3.9-6.1-3.9-6.1c0,0,4.3-1.4,11-1.1c6.7,0.4,15.8,2.4,26.2,9.5c9,6.2,14.5,14.2,16.8,22.4c0.9,3.3-1.7,7-4.9,10.4
			c-3.2,3.5-6.9,6.7-7.7,9.4c-1.1,3.5,1.2,9.7,8.5,7.7c-4.8,7.5-8.4,11-11.1,13.1c-2.7,2.1-4.5,2.7-6.2,4.5
			c-1.7,1.8-1.3,4.6,1.5,6.2c2.8,1.6,8.1,2.1,16-1.1c7.9-3.2,14.6-11.2,17.9-21.2c3.3-10,3.2-22-1.2-33.5c-1.3-3.6-2.9-6.9-4.7-10
			c1.8,3.1,3.9,6.1,6.3,9.1c7.8,9.5,18.1,15.6,28.4,17.7c10.3,2.2,20.6,0.3,27.3-4.9c6.7-5.2,9-10,9-13.2c0-3.2-2.2-5-4.6-4.4
			c-2.4,0.6-3.8,1.8-7,3.1c-3.1,1.3-8,2.7-16.9,3c5.3-5.3,1.1-10.4-2.4-11.2c-2.7-0.6-7.4,1-12,2c-4.6,1-9.1,1.5-11.5-0.9
			c-6-6.2-10.2-14.9-11.1-25.8c-1-12.6,1.8-21.5,4.8-27.5c3-6,6.5-9,6.5-9c0,0,1.1,3.1,3.3,6.4c2.2,3.3,5.6,7,10.4,7.9
			c2.1,0.4,1-4.6,1.5-11.3c0.2-3.4,0.9-7.2,2.5-11.1c1.6-3.9,4.1-8,8.3-12c4.2-4,8.9-6.3,14.1-7.5c5.2-1.2,10.8-1.1,16.6-0.3
			c11.5,1.7,23.7,6.7,33.2,12.4c5.8,3.5,9.8,7.8,12.4,12.7c2.5,4.9,3.5,10.3,3.2,15.7c-0.5,10.7-6.2,21.2-13,26.4
			c-6.8,5.3-14.8,5.7-21.1,2.6c-6.3-3-10.8-9.3-11.8-17.2c-1-7.8-3-10.2-5.4-9.7c-2.4,0.4-5.4,3.6-8.8,7.1c-2.3-7.1-3.1-13-1.1-17.7
			c2-4.7,6.9-8.2,16.2-11.1c2,6.4,8,7.6,13.1,6.5c2.5-0.6,3.8-3.1,3.6-6c-0.1-2.9-1.6-6-4.3-7.9c-2.7-1.9-10.7-4.3-18.6-3.2
			c-4,0.5-7.9,2-11.3,4.9c-3.4,2.9-6.2,7.3-8.3,13.9c-3.1,9-2.7,18.1,0.3,26.5c3,8.4,8.7,16.2,16.2,21.7c7.5,5.6,16.7,8.9,26.4,8.4
			c9.7-0.4,19.7-4.7,27.8-13.7c6.7-7.5,10.3-15.2,11.9-22.3c1.6-7.1,1.3-13.6,0.1-19c-2.4-10.8-7.9-17.4-7.8-17.4l17.6,10.7
			c0,0,1.6,5.5,6.3,8.5c4.7,3,10.2,0.4,10.2,0.4c8.5,5.7,10.6,12.4,10.5,17.7c0,5.3-2,9.1-1.1,9.2c0.9,0.1,5.3-1.8,11.8-3.8
			c6.5-2,15.1-4.3,24.6-4.9c-4.2-8.5-6.5-17.2-7.9-23.9C680,567.4,679.4,562.6,678.9,561.9z M538.7,531c-10.1,2.5-19,6.9-26.8,12
			c-7.8,5.1-14.5,11.1-19.9,17.2c-5.4,6.1-9.4,12.5-11.3,18.4c-4.4,13.6-6.3,25.4-5,36.4c0.9,7.5,3.2,14.6,7.2,21.4
			c-3.9-6.8-8.9-12.4-15-16.9c-8.9-6.6-20.1-10.8-34-13.8c-6-1.3-13.5-1-21.5,0.5c-8,1.6-16.4,4.4-24.7,8.5
			c-8.3,4.2-16.5,9.7-23.8,17.2c-7.2,7.5-13.6,16.8-17.5,28.9c-3.9-12.1-10.3-21.5-17.5-28.9c-7.3-7.4-15.5-13-23.8-17.2
			c-8.3-4.2-16.8-7-24.7-8.5c-8-1.5-15.4-1.8-21.5-0.5c-13.9,3-25.1,7.2-34,13.8c-6.1,4.5-11.1,10.1-15,16.9
			c3.9-6.8,6.3-13.9,7.2-21.4c1.3-11-0.6-22.8-5-36.4c-1.9-5.9-5.9-12.3-11.3-18.4c-5.4-6.2-12.1-12.1-19.9-17.2
			c-7.8-5.1-16.7-9.4-26.8-12c-10.1-2.5-21.4-3.3-33.8-0.6c8.5-9.4,13.5-19.6,16.3-29.6c2.8-10,3.6-19.8,3-29.1
			c-0.5-9.3-2.3-18-4.9-25.7c-2.6-7.7-6.1-14.3-10.3-18.9c-9.6-10.6-18.8-18.2-29-22.6c-6.9-3-14.3-4.6-22.1-4.6
			c7.8,0,15.2-1.5,22.1-4.6c10.1-4.4,19.4-12,29-22.6c4.2-4.6,7.6-11.2,10.3-18.9c2.6-7.7,4.4-16.4,4.9-25.7
			c0.5-9.3-0.2-19.1-3-29.1c-2.9-10-7.8-20.2-16.3-29.6c12.4,2.7,23.7,1.9,33.8-0.6c10.1-2.5,19-6.9,26.8-12
			c7.8-5.1,14.5-11.1,19.9-17.2c5.4-6.1,9.4-12.5,11.3-18.4c4.4-13.6,6.3-25.4,5-36.4c-0.9-7.5-3.2-14.6-7.2-21.4
			c3.9,6.8,8.9,12.4,15,16.9c8.9,6.6,20.1,10.8,34,13.8c6,1.3,13.5,1,21.5-0.5c8-1.6,16.4-4.4,24.7-8.5c8.3-4.2,16.5-9.7,23.8-17.2
			c7.2-7.5,13.6-16.8,17.5-28.9c3.9,12.1,10.3,21.5,17.5,28.9c7.3,7.4,15.5,13,23.8,17.2c8.3,4.2,16.8,7,24.7,8.5
			c8,1.5,15.4,1.8,21.5,0.5c13.9-3,25.1-7.2,34-13.8c6.1-4.5,11.1-10.1,15-16.9c-3.9,6.8-6.3,13.9-7.2,21.4c-1.3,11,0.6,22.8,5,36.4
			c1.9,5.9,5.9,12.3,11.3,18.4c5.4,6.2,12.1,12.1,19.9,17.2c7.8,5.1,16.7,9.4,26.8,12c10.1,2.5,21.4,3.3,33.8,0.6
			c-8.5,9.4-13.5,19.6-16.3,29.6c-2.8,10-3.6,19.8-3,29.1c0.5,9.3,2.3,18,4.9,25.7c2.6,7.7,6.1,14.3,10.3,18.9
			c9.6,10.6,18.8,18.2,29,22.6c6.9,3,14.3,4.5,22.1,4.6c-7.8,0-15.2,1.5-22.1,4.6c-10.1,4.4-19.4,12-29,22.6
			c-4.2,4.6-7.6,11.2-10.3,18.9c-2.6,7.7-4.4,16.4-4.9,25.7c-0.5,9.3,0.2,19.1,3,29.1c2.9,10,7.8,20.2,16.3,29.6
			C560,527.7,548.7,528.5,538.7,531z" style="fill: rgb(163, 54, 65); opacity: 1;"></path>
		<path class="st1" d="M538.7,531c-10.1,2.5-19,6.9-26.8,12c-7.8,5.1-14.5,11.1-19.9,17.2c-5.4,6.1-9.4,12.5-11.3,18.4
			c-4.4,13.6-6.3,25.4-5,36.4c0.9,7.5,3.2,14.6,7.2,21.4c-3.9-6.8-8.9-12.4-15-16.9c-8.9-6.6-20.1-10.8-34-13.8
			c-6-1.3-13.5-1-21.5,0.5c-8,1.6-16.4,4.4-24.7,8.5c-8.3,4.2-16.5,9.7-23.8,17.2c-7.2,7.5-13.6,16.8-17.5,28.9
			c-3.9-12.1-10.3-21.5-17.5-28.9c-7.3-7.4-15.5-13-23.8-17.2c-8.3-4.2-16.8-7-24.7-8.5c-8-1.5-15.4-1.8-21.5-0.5
			c-13.9,3-25.1,7.2-34,13.8c-6.1,4.5-11.1,10.1-15,16.9c3.9-6.8,6.3-13.9,7.2-21.4c1.3-11-0.6-22.8-5-36.4
			c-1.9-5.9-5.9-12.3-11.3-18.4c-5.4-6.2-12.1-12.1-19.9-17.2c-7.8-5.1-16.7-9.4-26.8-12c-10.1-2.5-21.4-3.3-33.8-0.6
			c8.5-9.4,13.5-19.6,16.3-29.6c2.8-10,3.6-19.8,3-29.1c-0.5-9.3-2.3-18-4.9-25.7c-2.6-7.7-6.1-14.3-10.3-18.9
			c-9.6-10.6-18.8-18.2-29-22.6c-6.9-3-14.3-4.6-22.1-4.6c7.8,0,15.2-1.5,22.1-4.6c10.1-4.4,19.4-12,29-22.6
			c4.2-4.6,7.6-11.2,10.3-18.9c2.6-7.7,4.4-16.4,4.9-25.7c0.5-9.3-0.2-19.1-3-29.1c-2.9-10-7.8-20.2-16.3-29.6
			c12.4,2.7,23.7,1.9,33.8-0.6c10.1-2.5,19-6.9,26.8-12c7.8-5.1,14.5-11.1,19.9-17.2c5.4-6.1,9.4-12.5,11.3-18.4
			c4.4-13.6,6.3-25.4,5-36.4c-0.9-7.5-3.2-14.6-7.2-21.4c3.9,6.8,8.9,12.4,15,16.9c8.9,6.6,20.1,10.8,34,13.8c6,1.3,13.5,1,21.5-0.5
			c8-1.6,16.4-4.4,24.7-8.5c8.3-4.2,16.5-9.7,23.8-17.2c7.2-7.5,13.6-16.8,17.5-28.9c3.9,12.1,10.3,21.5,17.5,28.9
			c7.3,7.4,15.5,13,23.8,17.2c8.3,4.2,16.8,7,24.7,8.5c8,1.5,15.4,1.8,21.5,0.5c13.9-3,25.1-7.2,34-13.8c6.1-4.5,11.1-10.1,15-16.9
			c-3.9,6.8-6.3,13.9-7.2,21.4c-1.3,11,0.6,22.8,5,36.4c1.9,5.9,5.9,12.3,11.3,18.4c5.4,6.2,12.1,12.1,19.9,17.2
			c7.8,5.1,16.7,9.4,26.8,12c10.1,2.5,21.4,3.3,33.8,0.6c-8.5,9.4-13.5,19.6-16.3,29.6c-2.8,10-3.6,19.8-3,29.1
			c0.5,9.3,2.3,18,4.9,25.7c2.6,7.7,6.1,14.3,10.3,18.9c9.6,10.6,18.8,18.2,29,22.6c6.9,3,14.3,4.5,22.1,4.6
			c-7.8,0-15.2,1.5-22.1,4.6c-10.1,4.4-19.4,12-29,22.6c-4.2,4.6-7.6,11.2-10.3,18.9c-2.6,7.7-4.4,16.4-4.9,25.7
			c-0.5,9.3,0.2,19.1,3,29.1c2.9,10,7.8,20.2,16.3,29.6C560,527.7,548.7,528.5,538.7,531z" style="fill: rgb(150, 150, 150); opacity: 1;"></path>
		<path class="st2" d="M346.4,634.6c-2.7-3.8-5.7-7.4-9-10.9c-7.6-7.8-16.6-14.3-26.9-19.5c-9-4.5-18.3-7.7-27.8-9.6
			c-5.4-1-10.5-1.6-15.3-1.6c-3.9,0-7.6,0.4-11,1.1c-10.7,2.3-19.6,5.3-27.2,9c-0.5-8.5-2.4-17.7-5.8-28.1
			c-2.3-7.3-6.9-14.9-13.6-22.6c-6.4-7.3-13.9-13.8-22.3-19.4c-9.7-6.3-19.9-10.9-30.4-13.6c-4.6-1.2-9.3-1.9-13.9-2.3
			c1.9-4.2,3.6-8.6,4.9-13.1c3-10.4,4.1-21.5,3.5-33c-0.6-10-2.4-19.7-5.6-28.9c-3.3-9.6-7.6-17.4-12.7-23
			c-7.4-8.2-14.4-14.5-21.5-19.2c7.1-4.7,14.1-11,21.5-19.2c5.1-5.7,9.4-13.4,12.7-23c3.1-9.1,5-18.9,5.6-28.9
			c0.6-11.5-0.5-22.6-3.5-33c-1.3-4.6-2.9-8.9-4.9-13.1c4.6-0.4,9.2-1.2,13.8-2.3c10.5-2.7,20.8-7.2,30.4-13.6
			c8.4-5.5,15.9-12.1,22.3-19.4c6.7-7.7,11.3-15.3,13.6-22.6c3.3-10.4,5.2-19.6,5.8-28.1c7.6,3.8,16.5,6.7,27.2,9
			c3.4,0.7,7.1,1.1,11,1.1c4.7,0,9.9-0.5,15.3-1.6c9.5-1.9,18.8-5.1,27.8-9.6c10.3-5.2,19.4-11.8,26.9-19.5c3.3-3.4,6.4-7.1,9-10.9
			c2.7,3.8,5.7,7.4,9,10.9c7.6,7.8,16.6,14.3,26.9,19.5c9,4.5,18.3,7.7,27.8,9.6c5.4,1,10.5,1.6,15.3,1.6c3.9,0,7.6-0.4,11-1.1
			c10.7-2.3,19.6-5.3,27.2-9c0.5,8.5,2.4,17.7,5.8,28.1c2.3,7.3,6.9,14.9,13.6,22.6c6.4,7.3,13.9,13.8,22.3,19.4
			c9.7,6.3,19.9,10.9,30.4,13.6c4.6,1.2,9.3,1.9,13.9,2.3c-1.9,4.2-3.6,8.6-4.9,13.1c-3,10.4-4.1,21.5-3.5,33
			c0.6,10,2.4,19.7,5.6,28.9c3.3,9.6,7.6,17.4,12.7,23c7.4,8.2,14.4,14.5,21.5,19.2c-7.1,4.7-14.1,11-21.5,19.2
			c-5.1,5.7-9.4,13.4-12.7,23c-3.1,9.1-5,18.9-5.6,28.9c-0.6,11.5,0.5,22.6,3.5,33c1.3,4.6,2.9,8.9,4.9,13.1
			c-4.6,0.4-9.2,1.2-13.8,2.3c-10.5,2.7-20.8,7.2-30.4,13.6c-8.4,5.5-15.9,12.1-22.3,19.4c-6.7,7.7-11.3,15.3-13.6,22.6
			c-3.3,10.4-5.2,19.6-5.8,28.1c-7.6-3.8-16.5-6.7-27.2-9c-3.4-0.7-7.1-1.1-11-1.1c-4.7,0-9.9,0.5-15.3,1.6
			c-9.5,1.9-18.8,5.1-27.8,9.6c-10.3,5.2-19.4,11.8-26.9,19.5C352.1,627.2,349.1,630.8,346.4,634.6z" style="fill: rgb(255, 160, 227); opacity: 1;"></path>
	</g>
</g>
<g font-family="noto" id="svgTXT" font-size="150"><text x="50%" y="56.25%" fill="E9E7AE" text-anchor="middle" font-weight="bolder" style="fill: rgb(233, 231, 174);"></text></g></svg>
