<svg xmlns="http://www.w3.org/2000/svg" width="33.681" height="51.501" viewBox="0 0 33.681 51.501">
  <g id="kennsaku" transform="translate(-1186 -12.499)">
    <text id="検索" transform="translate(1203 59)" fill="#fff" font-size="12" font-family="Meiryo"><tspan x="-12" y="0">検索</tspan></text>
    <g id="虫眼鏡の無料アイコン8" transform="translate(1186 12.499)">
      <path id="パス_1" data-name="パス 1" d="M22.068,19.214a12.11,12.11,0,1,0-2.694,2.694l.936.935L23,20.15ZM18.48,18.32a8.79,8.79,0,1,1,0-12.432A8.791,8.791,0,0,1,18.48,18.32Z" transform="translate(-0.159 0.001)" fill="#fff"/>
      <path id="パス_2" data-name="パス 2" d="M88.613,116.541a6.951,6.951,0,0,0-.445,7.873.489.489,0,0,0,.834-.509h0a5.976,5.976,0,0,1,.381-6.765.488.488,0,1,0-.77-.6Z" transform="translate(-81.428 -108.694)" fill="#fff"/>
      <path id="パス_3" data-name="パス 3" d="M327.613,323.3l-9.094-8.123-3.158,3.158,8.123,9.095c.826,1.069,2.313.911,3.65-.425S328.683,324.127,327.613,323.3Z" transform="translate(-294.613 -294.432)" fill="#fff"/>
    </g>
  </g>
</svg>
