<svg id="kousyou" xmlns="http://www.w3.org/2000/svg" width="48" height="48" viewBox="0 0 48 48">
  <defs>
    <style>
      .cls-1 {
        fill: #56a68f;
      }
    </style>
  </defs>
  <path id="パス_44" data-name="パス 44" class="cls-1" d="M24,1.469A22.531,22.531,0,1,1,1.469,24,22.556,22.556,0,0,1,24,1.469M24,0A24,24,0,1,0,48,24,24,24,0,0,0,24,0Z"/>
  <g id="グループ_66" data-name="グループ 66" transform="translate(5.767 1.224)">
    <path id="パス_45" data-name="パス 45" class="cls-1" d="M25.639,16.548a16.624,16.624,0,0,0-.649,4.611,16.8,16.8,0,0,0,.948,5.584,16.144,16.144,0,0,0-.208,2.576c0,.365.012.727.037,1.09a17.442,17.442,0,0,1-1.479-7.073,17.137,17.137,0,0,1,1.354-6.786M41.582,5.03A18.3,18.3,0,0,0,27.363,34.516a15.373,15.373,0,0,1-.671-7.837A16.147,16.147,0,0,1,41.582,5.03Z" transform="translate(-23.55 -5.023)"/>
    <path id="パス_46" data-name="パス 46" class="cls-1" d="M115.413,16.54a17.536,17.536,0,0,1,1.354,6.786,17.824,17.824,0,0,1-1.479,7.073c.024-.362.037-.725.037-1.09a16.457,16.457,0,0,0-.208-2.576,16.825,16.825,0,0,0,.3-10.2M99.47,5.022h0a16.145,16.145,0,0,1,14.89,21.647,15.374,15.374,0,0,1-.671,7.837A18.3,18.3,0,0,0,99.47,5.02h0Z" transform="translate(-80.877 -5.015)"/>
    <path id="パス_47" data-name="パス 47" class="cls-1" d="M36.873,68.686l-.985-.171A15.866,15.866,0,0,1,39.5,60.874l.758.653A14.866,14.866,0,0,0,36.873,68.686Z" transform="translate(-33.238 -47.437)"/>
    <g id="グループ_65" data-name="グループ 65" transform="translate(18.593 0.005)">
      <path id="パス_48" data-name="パス 48" class="cls-1" d="M149.244,68.445a14.569,14.569,0,0,0-3.4-7.089l.758-.653a15.555,15.555,0,0,1,3.631,7.571Z" transform="translate(-134.771 -47.313)"/>
      <path id="パス_49" data-name="パス 49" class="cls-1" d="M104.3,6.984a11.26,11.26,0,0,1,2.878,2.126,11.1,11.1,0,0,1,3.186,7.807c0,.233,0,.448-.007.656a16.393,16.393,0,0,0-6.105-3.588,6.18,6.18,0,0,0,.049-7M99.47,5.022a5.433,5.433,0,0,1,3.478,9.353,15.493,15.493,0,0,1,7.974,4.851,11.57,11.57,0,0,0,.174-2.309A11.9,11.9,0,0,0,99.472,5.02h0Z" transform="translate(-99.47 -5.02)"/>
    </g>
    <path id="パス_50" data-name="パス 50" class="cls-1" d="M56.523,6.992a6.175,6.175,0,0,0,.051,7,16.013,16.013,0,0,0-6.088,3.661c-.015-.242-.024-.487-.024-.73a11.186,11.186,0,0,1,6.064-9.933M61.353,5.03a11.909,11.909,0,0,0-11.39,14.248,15.389,15.389,0,0,1,7.913-4.893,5.434,5.434,0,0,1,3.478-9.353h0Z" transform="translate(-43.319 -5.023)"/>
    <path id="パス_51" data-name="パス 51" class="cls-1" d="M97.469,5c-.093,0-.186,0-.279.007.093,0,.186-.007.279-.007Z" transform="translate(-79.156 -5)"/>
    <path id="パス_52" data-name="パス 52" class="cls-1" d="M98.33,5c.093,0,.186,0,.279.007Q98.47,5,98.33,5Z" transform="translate(-80.017 -5)"/>
    <path id="パス_53" data-name="パス 53" class="cls-1" d="M97.469,5c-.091,0-.181,0-.272.007.091,0,.181-.007.272-.007Zm-.272.007h0Z" transform="translate(-79.156 -5)"/>
    <path id="パス_54" data-name="パス 54" class="cls-1" d="M98.33,5c.091,0,.181,0,.272.007-.091,0-.181-.007-.272-.007Zm.272.007h0Z" transform="translate(-80.017 -5)"/>
    <path id="パス_55" data-name="パス 55" class="cls-1" d="M97.469,5c-.093,0-.186,0-.279.007.093,0,.186-.007.279-.007Z" transform="translate(-79.156 -5)"/>
    <path id="パス_56" data-name="パス 56" class="cls-1" d="M98.33,5c.093,0,.186,0,.279.007-.093,0-.186-.007-.279-.007Z" transform="translate(-80.017 -5)"/>
  </g>
  <path id="パス_57" data-name="パス 57" class="cls-1" d="M66,48.667a.5.5,0,0,1-.259-.072L50.568,39.422,35.551,48.594a.5.5,0,0,1-.726-.61l11.52-29.2,3.381-8.367a.5.5,0,0,1,.924-.008.5.5,0,0,1,.924.008l3.38,8.363,7.682,19.473a.5.5,0,0,1,.02.064l3.815,9.67a.5.5,0,0,1-.465.683ZM50.567,38.337a.5.5,0,0,1,.259.072L65,46.974l-3.3-8.358a.5.5,0,0,1-.02-.064L54.025,19.147,51.61,13.172V17.52a1.881,1.881,0,0,1-.088,3.284.5.5,0,0,1-.412.217H50.19a.5.5,0,0,1-.412-.217,1.881,1.881,0,0,1-.088-3.284V13.172l-2.416,5.979L36.3,46.963l14-8.553A.5.5,0,0,1,50.567,38.337Zm-.1-18.316h.376a.5.5,0,0,1,.1-.052.882.882,0,0,0,0-1.664.5.5,0,0,1-.293-.276.5.5,0,0,1-.293.276.882.882,0,0,0,0,1.664A.5.5,0,0,1,50.462,20.021Z" transform="translate(-26.648 -8.004)"/>
</svg>
